<?xml version="1.0" encoding="UTF-8" standalone="no"?>
<svg
   xmlns:dc="http://purl.org/dc/elements/1.1/"
   xmlns:cc="http://creativecommons.org/ns#"
   xmlns:rdf="http://www.w3.org/1999/02/22-rdf-syntax-ns#"
   xmlns:svg="http://www.w3.org/2000/svg"
   xmlns="http://www.w3.org/2000/svg"
   viewBox="0 0 793.70135 1122.52"
   height="1122.52"
   width="793.70135"
   xml:space="preserve"
   id="svg2"
   version="1.1"><metadata
     id="metadata8"><rdf:RDF><cc:Work
         rdf:about=""><dc:format>image/svg+xml</dc:format><dc:type
           rdf:resource="http://purl.org/dc/dcmitype/StillImage" /><dc:title></dc:title></cc:Work></rdf:RDF></metadata><defs
     id="defs6"><clipPath
       id="clipPath38"
       clipPathUnits="userSpaceOnUse"><path
         style="clip-rule:evenodd"
         id="path36"
         d="M 571.9238,803.6116 H 23.3524 V 38.2782 h 548.5714 z" /></clipPath><linearGradient
       id="linearGradient48"
       spreadMethod="pad"
       gradientTransform="matrix(8.93137,777.72843,-557.35834,6.40066,571.8515,28.8802)"
       gradientUnits="userSpaceOnUse"
       y2="0"
       x2="1"
       y1="0"
       x1="0"><stop
         id="stop42"
         offset="0"
         style="stop-opacity:1;stop-color:#ebeaeb" /><stop
         id="stop44"
         offset="0.98"
         style="stop-opacity:1;stop-color:#ffffff" /><stop
         id="stop46"
         offset="1"
         style="stop-opacity:1;stop-color:#ffffff" /></linearGradient></defs><g
     transform="matrix(1.3333333,0,0,-1.3333333,0,1122.52)"
     id="g10"><path
       id="path12"
       style="fill:none;stroke:#1a1a18;stroke-width:0.56690001;stroke-linecap:butt;stroke-linejoin:miter;stroke-miterlimit:22.92558479;stroke-dasharray:none;stroke-opacity:1"
       d="M -7.3701,816.946 H 9.6378" /><path
       id="path14"
       style="fill:none;stroke:#1a1a18;stroke-width:0.56690001;stroke-linecap:butt;stroke-linejoin:miter;stroke-miterlimit:22.92558479;stroke-dasharray:none;stroke-opacity:1"
       d="m 9.6369,816.9446 v 17.0079" /><path
       id="path16"
       style="fill:none;stroke:#1a1a18;stroke-width:0.56690001;stroke-linecap:butt;stroke-linejoin:miter;stroke-miterlimit:22.92558479;stroke-dasharray:none;stroke-opacity:1"
       d="M 602.646,816.946 H 585.6381" /><path
       id="path18"
       style="fill:none;stroke:#1a1a18;stroke-width:0.56690001;stroke-linecap:butt;stroke-linejoin:miter;stroke-miterlimit:22.92558479;stroke-dasharray:none;stroke-opacity:1"
       d="m 585.6389,816.9446 v 17.0079" /><path
       id="path20"
       style="fill:none;stroke:#1a1a18;stroke-width:0.56690001;stroke-linecap:butt;stroke-linejoin:miter;stroke-miterlimit:22.92558479;stroke-dasharray:none;stroke-opacity:1"
       d="M -7.3701,24.9435 H 9.6378" /><path
       id="path22"
       style="fill:none;stroke:#1a1a18;stroke-width:0.56690001;stroke-linecap:butt;stroke-linejoin:miter;stroke-miterlimit:22.92558479;stroke-dasharray:none;stroke-opacity:1"
       d="M 9.6369,24.9449 V 7.937" /><path
       id="path24"
       style="fill:none;stroke:#1a1a18;stroke-width:0.56690001;stroke-linecap:butt;stroke-linejoin:miter;stroke-miterlimit:22.92558479;stroke-dasharray:none;stroke-opacity:1"
       d="M 602.646,24.9435 H 585.6381" /><path
       id="path26"
       style="fill:none;stroke:#1a1a18;stroke-width:0.56690001;stroke-linecap:butt;stroke-linejoin:miter;stroke-miterlimit:22.92558479;stroke-dasharray:none;stroke-opacity:1"
       d="M 585.6389,24.9449 V 7.937" /><path
       id="path28"
       style="fill:#ffffff;fill-opacity:1;fill-rule:evenodd;stroke:none"
       d="M 1.1341,825.4488 H 594.142 V 16.4409 H 1.1341 Z" /><path
       id="path30"
       style="fill:#ffffff;fill-opacity:1;fill-rule:evenodd;stroke:none"
       d="m 9.6381,816.9449 h 576 v -792 h -576 z" /><g
       id="g32"><g
         clip-path="url(#clipPath38)"
         id="g34"><g
           id="g40"><path
             id="path50"
             style="fill:url(#linearGradient48);fill-rule:evenodd;stroke:none"
             d="M 571.9238,803.6116 H 23.3524 V 38.2782 h 548.5714 z" /></g></g></g><path
       id="path52"
       style="fill:#eaf7fe;fill-opacity:1;fill-rule:evenodd;stroke:none"
       d="m 265.0898,536.5979 c 0.1267,1.2081 1.4046,6.6143 3.1519,6.739 1.1531,0.0817 1.9513,0.6968 2.3933,1.499 7.6099,1.2226 17.0424,3.0988 19.5681,4.3475 4.1919,2.0704 10.167,9.6715 13.5853,11.7221 3.4189,2.0509 5.4748,-2.588 5.9343,-5.3144 0.4581,-2.7255 -4.7211,-11.0851 -12.6436,-17.9572 -6.5291,-5.6596 -24.4945,-9.0003 -30.6221,-10.0017 -0.7002,2.9656 -1.6796,5.9896 -1.3672,8.9657" /><path
       id="path54"
       style="fill:#eaf7fe;fill-opacity:1;fill-rule:evenodd;stroke:none"
       d="m 325.6174,547.8216 c -1.6265,7.9906 -2.1095,8.2262 -4.6153,11.0603 -1.5319,2.3011 -4.8884,4.9835 -6.9387,5.4714 -4.8055,1.1392 -10.6251,1.1982 -13.2403,-0.5888 -3.5552,-7.9364 -3.9753,-11.5605 -5.6401,-20.1359 -1.103,-5.678 -2.3017,-20.804 -2.9435,-26.5992 -0.3708,-4.2944 0.1899,-5.1445 -0.1069,-9.3251 0.038,-0.2304 0.0916,-0.371 0.1664,-0.4087 14.6985,-7.1309 40.4618,2.2892 39.9997,8.1263 -0.282,3.5839 -4.8742,22.2605 -6.6813,32.3997" /><path
       id="path56"
       style="fill:#8fc4e0;fill-opacity:1;fill-rule:evenodd;stroke:none"
       d="m 295.6198,482.0834 c -0.8354,0.8436 1.0868,26.7834 0.3609,29.8559 -0.7246,3.0741 0.3614,16.6833 -0.3629,21.5135 -0.7231,4.8303 13.7702,6.586 15.9438,3.5144 2.1753,-3.0742 1.0876,-19.3204 1.4507,-28.1004 0.364,-8.78 1.088,-23.2707 1.088,-27.2214 0,-3.9515 -16.3057,-1.7583 -18.4805,0.438" /><path
       id="path58"
       style="fill:#e5da00;fill-opacity:1;fill-rule:evenodd;stroke:none"
       d="m 323.6751,550.974 c 0,0 -8.278,12.4039 -13.8727,12.4039 -4.8966,3e-4 -6.4695,-3.5283 -8.2865,-13.1071 -1.8168,-9.5789 -1.467,-19.1903 -1.467,-21.3976 6e-4,-2.2113 22.5369,-1.4738 26.5354,0.7356 3.9983,2.2104 -1.0919,16.5761 -2.9092,21.3652" /><path
       id="path60"
       style="fill:#eaf7fe;fill-opacity:1;fill-rule:evenodd;stroke:none"
       d="m 306.5238,562.415 0.1562,-0.5208 c -0.4215,-0.428 -4.9175,-7.5475 -5.4791,-15.9482 -0.5638,-8.4011 -0.2826,-41.2949 -0.4226,-44.8532 -0.14,-3.5603 -10.6784,1.2804 -10.6784,1.2804 0,0 5.1993,49.411 6.4633,52.1155 1.2648,2.706 9.5244,9.3019 9.9606,7.9263" /><path
       id="path62"
       style="fill:#e4f0f7;fill-opacity:1;fill-rule:evenodd;stroke:none"
       d="m 301.9204,562.244 c 0,0 -0.9516,1.2691 -1.5463,0.7084 -0.5976,-0.5655 -2.8281,-4.6653 -3.439,-6.0236 -0.6134,-1.3584 2.3817,-2.0197 2.9528,-2.7805 0.5672,-0.7614 -1.163,-2.2561 -1.9652,-3.3594 -0.8051,-1.1058 2.9523,-11.6484 2.9219,-13.238 -0.032,-1.5911 1.2932,15.9655 1.7456,19.1687 0.4558,3.2043 -0.3056,4.2196 -0.6698,5.5244" /><path
       id="path64"
       style="fill:#ffffff;fill-opacity:1;fill-rule:evenodd;stroke:none"
       d="m 298.2317,558.2398 c 0.6134,1.3572 2.3309,4.9708 2.9284,5.5341 0.5531,0.5241 4.5825,0.3923 5.0865,0.2443 -1.7458,-4.3523 -3.6079,-9.7344 -4.2358,-14.3183 -0.4963,-3.6304 -0.8864,-7.2939 -1.0157,-10.9522 -0.1791,-0.8657 -0.2851,-1.2634 -0.2794,-0.965 0.0317,1.5906 -2.8625,13.0828 -2.0608,14.1869 0.8027,1.1038 3.3638,2.3094 2.7927,3.0719 -0.5692,0.7608 -3.8288,1.8388 -3.2159,3.1983" /><path
       id="path66"
       style="fill:#8fc4e0;fill-opacity:1;fill-rule:evenodd;stroke:none"
       d="m 312.1464,477.4689 c -0.8354,0.9119 1.087,28.9731 0.3611,32.2988 -0.7243,3.3241 0.3614,18.0476 -0.3631,23.2732 -0.7237,5.2246 13.7707,7.1246 15.9446,3.7996 2.1741,-3.3236 1.0873,-20.899 1.4499,-30.3985 0.3634,-9.4989 1.0882,-25.1713 1.0882,-29.4471 0,-4.2752 -16.3063,-1.9018 -18.4807,0.474" /><path
       id="path68"
       style="fill:#ffffff;fill-opacity:1;fill-rule:evenodd;stroke:none"
       d="m 310.1448,493.8905 c 0,0 -1.1225,20.4752 -0.6729,27.5278 0.3724,5.8527 -0.004,32.3929 3.6314,39.8089 1.2206,2.4906 5.4525,3.1233 9.8139,-2.7314 4.3611,-5.8544 9.8144,-23.8059 11.6314,-33.9548 1.8195,-10.1481 3.2731,-16.7825 2.9106,-18.345 -0.3634,-1.5602 -22.2251,-12.6961 -27.3144,-12.3055" /><path
       id="path70"
       style="fill:#eaf7fe;fill-opacity:1;fill-rule:evenodd;stroke:none"
       d="m 334.5486,524.541 c -1.817,10.1489 -7.6125,28.4598 -11.9736,34.3151 -1.8218,2.4429 -5.231,4.8625 -8.0753,4.2939 9.271,-2.7646 8.7596,-17.5456 9.5533,-26.8132 0.6341,-7.4075 1.0551,-14.8805 0.7393,-22.3214 -0.1522,-3.6006 -0.4218,-7.1944 -0.9352,-10.7595 -0.0986,-0.6809 -0.2403,-1.3725 -0.3957,-2.0676 6.804,1.7394 13.7857,4.1003 13.9978,5.0077 0.3622,1.5625 -1.0911,8.1969 -2.9106,18.345" /><path
       id="path72"
       style="fill:#fecf71;fill-opacity:1;fill-rule:evenodd;stroke:none"
       d="m 195.4962,487.3439 c 0,-12.2165 37.9658,-22.1187 84.7967,-22.1187 46.832,0 84.797,9.9022 84.797,22.1187 0,12.2156 -37.965,22.1182 -84.797,22.1182 -46.8312,0 -84.7965,-9.9026 -84.7967,-22.1182" /><path
       id="path74"
       style="fill:#f8aa35;fill-opacity:1;fill-rule:evenodd;stroke:none"
       d="m 304.9642,560.6694 0.002,-0.116 0.0292,0.1143 -0.0142,0.008 -0.0167,-0.006 z" /><path
       id="path76"
       style="fill:#e4f0f7;fill-opacity:1;fill-rule:evenodd;stroke:none"
       d="m 315.5199,553.2704 c 0.9326,0.5309 4.5479,0.0828 4.3792,1.6225 -0.1678,1.5381 -1.1021,6.3185 -1.5568,7.0813 -0.4549,0.7619 -2.0097,-0.1236 -2.0097,-0.1236 -0.9083,-1.131 -2.1521,-1.8389 -2.8684,-5.1078 -0.3753,-1.7152 -1.9925,-7.3394 -3.3636,-12.0801 -0.0431,-1.455 -0.0553,-2.9109 -0.032,-4.367 2.5863,3.2244 6.7155,8.0325 6.3711,9.0073 -0.4796,1.3624 -1.8533,3.4367 -0.9198,3.9674" /><path
       id="path78"
       style="fill:#ffffff;fill-opacity:1;fill-rule:evenodd;stroke:none"
       d="m 313.776,554.2651 c 0.9332,0.5312 3.918,0.7979 3.7502,2.3377 -0.1675,1.5375 0.9114,5.6307 0.4564,6.3921 -0.4541,0.7625 -5.5414,1.0488 -5.5414,1.0488 0.212,-0.8288 -0.292,-2.7583 -0.9584,-6.2481 -0.1316,-0.6862 -0.3861,-2.0562 -0.7002,-3.7672 -0.5148,-4.4584 -0.7716,-8.9481 -0.7177,-13.4343 2.4157,3.5791 4.693,9.0173 4.3602,9.9647 -0.4796,1.3606 -1.5811,3.1751 -0.6491,3.7063" /><path
       id="path80"
       style="fill:#f5bb59;fill-opacity:1;fill-rule:evenodd;stroke:none"
       d="m 216.4141,494.5603 c 5.4737,0.0993 11.5232,-1.1508 16.4747,2.9064 -4.7662,3.2729 -10.4868,2.9302 -15.5897,2.2935 -3.7366,-0.4643 -7.4554,-1.2892 -11.1855,-1.885 0.6375,0.2421 1.2725,0.4926 1.8975,0.7645 1.3473,0.5845 2.84,1.3116 4.379,1.9372 1.8405,0.3302 3.6833,0.6321 5.5321,0.8237 5.2821,0.5517 11.133,0.8249 15.9168,-3.0758 v -1.5707 c -5.1392,-5.1083 -11.5761,-3.5884 -17.4249,-3.7627 -6.8581,-0.2058 -13.6542,-1.408 -20.4258,-2.9577 0.4115,0.6171 0.8297,1.2396 1.2529,1.8592 6.3507,1.4262 12.7477,2.5501 19.1729,2.6674" /><path
       id="path82"
       style="fill:#f5bb59;fill-opacity:1;fill-rule:evenodd;stroke:none"
       d="m 323.4915,485.231 c 7.2887,5.2599 15.885,3.6252 24.0137,4.2431 1.7399,-0.7083 3.6853,-0.5572 5.5199,-0.4606 l -0.0193,-0.0828 c -9.11,-2.4845 -19.4026,0.9264 -28.08,-4.2018 5.3938,-1.6911 11.0886,-1.0162 16.5637,-0.5578 6.3927,0.534 12.8336,-0.4045 19.1466,-1.7065 -0.885,-0.3336 -1.7875,-0.6196 -2.7034,-0.864 -5.438,0.9766 -11.0951,1.5886 -16.4432,1.1356 -5.9604,-0.5054 -12.1884,-1.2626 -17.998,1.0604 z" /><path
       id="path84"
       style="fill:#f5bb59;fill-opacity:1;fill-rule:evenodd;stroke:none"
       d="m 312.2631,497.3786 c 6.6943,-1.3006 13.3838,-0.0601 20.0892,0.4793 l 0.006,0.011 c -2.7094,0.1817 -5.412,0.5364 -8.1207,0.8074 -3.9926,-0.3433 -7.9827,-0.474 -11.9742,0.3027 0.0851,-0.0164 -0.1068,-1.5783 0,-1.6004" /><path
       id="path86"
       style="fill:#f5bb59;fill-opacity:1;fill-rule:evenodd;stroke:none"
       d="m 338.7129,478.222 c 2.5694,0.311 5.1092,0.779 7.6221,1.4604 l 0.005,0.0556 c -22.5966,-1.3638 -44.6028,6.9052 -67.2236,4.5765 -0.0694,-0.008 0.0442,-1.7019 0,-1.707 18.5851,1.9139 36.7546,-3.3191 55.1772,-4.4938 1.461,0.1783 3.0529,0.0973 4.4192,0.1083" /><path
       id="path88"
       style="fill:#e3b357;fill-opacity:1;fill-rule:evenodd;stroke:none"
       d="m 291.2091,493.0036 c 0,-4.913 -14.709,-9.328 -30.7052,-9.328 -15.993,0 -24.0973,3.6374 -24.0973,8.5504 0,4.9136 9.1624,8.9005 25.1555,8.9005 15.9956,3e-4 29.647,-3.2094 29.647,-8.1229" /><path
       id="path90"
       style="fill:#f5bb59;fill-opacity:1;fill-rule:evenodd;stroke:none"
       d="m 244.1336,481.6928 c -1.0749,0.1893 -2.147,0.6179 -3.2207,1.1868 -4.68,-0.2837 -9.4153,0.955 -13.9907,-1.5279 1.563,0.5491 3.2275,0.4133 4.8489,-0.2259 4.1037,0.4672 8.2735,-0.5303 12.3625,0.567" /><path
       id="path92"
       style="fill:#f5bb59;fill-opacity:1;fill-rule:evenodd;stroke:none"
       d="m 241.8123,477.129 c 2.0684,-0.0613 4.1193,-0.508 6.1736,-0.8793 3.8511,0.299 7.7119,0.3637 11.5452,0.9813 1.0451,0.6047 2.0364,1.3612 2.9375,2.3069 -6.8303,-1.7153 -13.7917,-0.9811 -20.6472,-2.384 l -0.009,-0.0249 z" /><path
       id="path94"
       style="fill:#e3b357;fill-opacity:1;fill-rule:evenodd;stroke:none"
       d="m 288.9337,497.2456 c 2.0605,0.2293 4.7226,0.2118 6.8287,0.4442 2.4046,0.2648 4.551,0.1837 6.8902,0.8028 2.5951,0.6851 7.9849,2.567 10.6429,2.9554 3.3185,0.485 5.597,1.2639 8.9158,2.2067 2.5577,0.7268 5.0032,-0.0164 7.9555,1.6399 -6.7045,1.0202 -14.8312,3.2088 -30.8498,3.4205 -1.5301,-1.3875 -17.8381,-3.6771 -19.5054,-5.0604 -1.2762,-1.0578 -1.6495,-3.3063 -0.2081,-4.3072 4.0331,-2.8004 6.8706,-2.3746 9.3302,-2.1019" /><path
       id="path96"
       style="fill:#f5bb59;fill-opacity:1;fill-rule:evenodd;stroke:none"
       d="m 266.9264,503.6477 c -4.801,1.6231 -9.616,-0.2007 -14.4181,-0.868 -2.9515,-0.4108 -5.7657,0.633 -8.593,1.4771 -0.0893,0.002 -0.1769,0.0122 -0.2667,0.0133 -1.9112,0.0295 -3.7806,-0.4036 -5.6586,-0.4906 0.002,-0.1837 0.003,-0.3118 0,-0.3118 4.6764,0.3583 9.0675,-2.8032 13.7736,-2.4744 5.0973,0.3557 10.0633,2.6714 15.1628,0.9485 -0.0695,0.0238 0.0856,1.6767 0,1.7059" /><path
       id="path98"
       style="fill:#fee1b7;fill-opacity:1;fill-rule:evenodd;stroke:none"
       d="m 295.1668,507.8186 c -0.1854,0.3041 -2.8678,0.4348 -3.6929,-0.6035 -2.0243,0.1207 -5.0794,0.7662 -7.8602,0.2412 -1.764,-0.3334 -3.598,-1.2045 -2.1476,-2.0543 0.6942,-0.4076 2.9733,-0.1754 3.1802,-0.0981 0.1208,0.0451 -0.2545,-0.043 -2.7377,-0.1579 -4.9597,-0.2338 -5.7481,-3.0767 -2.3065,-3.3017 -1.7955,0.1184 -3.6695,-2.954 2.6405,-2.5226 -0.654,-0.0442 -1.8219,-1.1446 -1.0307,-1.7325 1.1143,-0.8275 3.16,-0.855 4.9895,-0.3337 3.0711,0.8762 6.5089,1.8598 7.5362,4.5267 0.9366,1.6934 2.0038,4.7449 1.4292,6.0364" /><path
       id="path100"
       style="fill:#ffffff;fill-opacity:1;fill-rule:evenodd;stroke:none"
       d="m 287.2718,513.1193 c 0,0 3.109,-4.5014 6.512,-9.0765 3.4024,-4.5737 4.8439,-4.0175 4.8439,-4.0175 0,2e-4 14.5173,10.6993 19.3229,21.1416 4.8081,10.4442 6.1889,20.8519 4.4867,23.1367 -1.7014,2.2884 -3.4719,6.8195 -5.9619,3.1589 -2.4891,-3.6607 -7.4143,-15.0727 -10.671,-19.15 -3.2533,-4.0788 -16.0532,-14.2971 -18.5326,-15.1932" /><path
       id="path102"
       style="fill:#eaf7fe;fill-opacity:1;fill-rule:evenodd;stroke:none"
       d="m 296.3069,509.254 c 6.0874,3.7755 11.5317,8.1916 16.0248,13.7157 1.5069,1.8522 2.8968,3.873 4.1168,5.9973 0.7821,0.8892 1.4576,1.8796 1.9545,3.0399 1.5446,3.6088 3.132,7.1501 4.5859,10.7642 0.6633,-3.848 -0.9442,-12.7114 -5.0383,-21.6042 -4.8056,-10.4423 -19.3229,-21.1416 -19.3229,-21.1416 0,2e-4 -1.3564,-0.7263 -4.7591,3.8469 -0.688,0.9246 -1.4415,1.9709 -2.0583,2.8953 1.1248,0.6604 3.4713,1.8504 4.4966,2.4865" /><path
       id="path104"
       style="fill:#e3b357;fill-opacity:1;fill-rule:evenodd;stroke:none"
       d="m 312.6679,484.501 c 0,-2.2515 -3.6127,-4.6527 -9.4039,-4.6527 -5.7903,0 -11.5656,2.4012 -11.5656,4.6527 0,2.2516 4.6944,4.0771 10.4842,4.0771 5.7917,0 10.4853,-1.8255 10.4853,-4.0771" /><path
       id="path106"
       style="fill:#e3b357;fill-opacity:1;fill-rule:evenodd;stroke:none"
       d="m 288.4941,475.4511 c 0,-2.3076 -3.2567,-4.7687 -8.4773,-4.7687 -5.2197,0 -10.4261,2.4611 -10.4261,4.7687 0,2.308 4.2315,4.18 9.4513,4.18 5.2208,0 9.4524,-1.872 9.4521,-4.18" /><path
       id="path108"
       style="fill:#e3b357;fill-opacity:1;fill-rule:evenodd;stroke:none"
       d="m 329.6106,476.4107 c 0,-2.1379 -3.0078,-4.4187 -7.829,-4.4187 -4.8203,0 -9.629,2.2808 -9.629,4.4187 0,2.1401 3.9084,3.8747 8.729,3.8747 4.8212,0 8.729,-1.7346 8.729,-3.8747" /><path
       id="path110"
       style="fill:#acc909;fill-opacity:1;fill-rule:evenodd;stroke:none"
       d="m 269.729,477.6208 c 0,0 4.0728,-7.7009 10.1075,-5.4987 5.2146,1.9035 6.1829,4.5893 7.4157,5.2155 0,0 -5.4717,8.0858 -17.5232,0.2832" /><path
       id="path112"
       style="fill:#23a735;fill-opacity:1;fill-rule:evenodd;stroke:none"
       d="m 280.7444,476.4702 c 2.6142,0.1137 4.7968,0.6214 6.7204,1.514 1.2725,0.4921 2.4818,1.19 3.3854,2.1671 0.1993,0.1655 0.3963,0.337 0.5916,0.5136 0.239,0.0893 0.5156,0.0612 0.7336,-0.0981 l 0.0389,-0.0309 c 0.3313,-0.2738 0.3784,-0.7665 0.1051,-1.0964 -1.8774,-2.2448 -4.7214,-3.2358 -7.0636,-3.7196 -2.348,-0.4768 -4.2327,-0.4303 -4.2707,-0.4292 -0.4309,0.0105 -4.3149,0.7234 -4.3067,1.152 l -0.0541,0.095 c 1.3646,-0.093 2.736,-0.1282 4.1201,-0.0675" /><path
       id="path114"
       style="fill:#acc909;fill-opacity:1;fill-rule:evenodd;stroke:none"
       d="m 310.536,477.0859 c 0,0 4.9371,-7.4801 10.686,-4.1769 4.968,2.854 5.6223,5.8493 6.7766,6.7105 0,0 -6.3715,7.6612 -17.4626,-2.5336" /><path
       id="path116"
       style="fill:#23a735;fill-opacity:1;fill-rule:evenodd;stroke:none"
       d="m 321.6251,477.6514 c 2.5872,0.5426 4.7002,1.4312 6.5106,2.6864 1.209,0.7254 2.3318,1.6594 3.1184,2.8375 0.1792,0.2069 0.3552,0.4198 0.529,0.6398 0.2279,0.1315 0.5063,0.1474 0.7412,0.0133 l 0.042,-0.0264 c 0.3611,-0.2355 0.4652,-0.7486 0.231,-1.1426 -1.6098,-2.6748 -4.3239,-4.182 -6.5987,-5.0721 -2.2805,-0.8838 -4.1605,-1.1398 -4.1984,-1.1446 -0.4298,-0.0573 -4.375,0.0678 -4.4161,0.5224 l -0.0647,0.091 c 1.3675,0.1213 2.736,0.3073 4.1057,0.5953" /><path
       id="path118"
       style="fill:#acc909;fill-opacity:1;fill-rule:evenodd;stroke:none"
       d="m 291.3755,485.1289 c 0,0 4.3534,8.8716 11.3009,6.5951 6.0029,-1.9667 7.2028,-4.9748 8.6295,-5.6407 0,0 -5.9307,-9.3577 -19.9304,-0.9544" /><path
       id="path120"
       style="fill:#23a735;fill-opacity:1;fill-rule:evenodd;stroke:none"
       d="m 303.8686,486.8308 c 2.9787,-0.0343 5.4811,-0.5292 7.7023,-1.4714 1.4653,-0.5108 2.8673,-1.2589 3.9314,-2.3321 0.2327,-0.1808 0.4629,-0.3679 0.6914,-0.5615 0.2752,-0.0927 0.5896,-0.0502 0.8317,0.138 l 0.0428,0.0357 c 0.367,0.3237 0.4025,0.8827 0.0796,1.247 -2.2184,2.4755 -5.4901,3.4945 -8.174,3.9574 -2.6886,0.4561 -4.8316,0.3354 -4.8747,0.3325 -0.4904,-0.0286 -4.8835,-0.9748 -4.8583,-1.4624 l -0.0576,-0.1088 c 1.5483,0.1556 3.1079,0.2449 4.6854,0.2256" /><path
       id="path122"
       style="fill:#4c4c4b;fill-opacity:1;fill-rule:evenodd;stroke:none"
       d="m 280.6243,477.652 0.002,0.0402 c -0.005,0.1661 0.1126,0.9706 0.555,1.2745 0.1562,0.1182 0.1662,0.3163 0.0247,0.4453 -0.1431,0.1307 -0.3855,0.1423 -0.5434,0.0255 -0.7452,-0.58 -0.7801,-1.487 -0.8031,-1.7115 l -0.002,-0.0403 h -0.002 c -0.008,-0.1726 0.1582,-0.3206 0.3685,-0.3294 0.2103,-0.01 0.3912,0.1225 0.4,0.2957" /><path
       id="path124"
       style="fill:#4c4c4b;fill-opacity:1;fill-rule:evenodd;stroke:none"
       d="m 279.165,477.8952 0.002,0.0394 c -0.006,0.1675 0.1126,0.972 0.5562,1.2756 0.1556,0.1168 0.165,0.3149 0.0235,0.4442 -0.1434,0.1301 -0.3843,0.142 -0.5422,0.0263 -0.7458,-0.5788 -0.7818,-1.489 -0.8034,-1.7115 l -0.002,-0.0392 h -9e-4 c -0.009,-0.1743 0.1573,-0.3217 0.3671,-0.3313 0.2115,-0.01 0.3918,0.1224 0.4,0.2965" /><path
       id="path126"
       style="fill:#4c4c4b;fill-opacity:1;fill-rule:evenodd;stroke:none"
       d="m 276.6243,478.218 0.0139,0.0389 c 0.0496,0.1618 0.4209,0.9079 0.9479,1.1049 0.189,0.0788 0.2619,0.2659 0.1644,0.4215 -0.0961,0.1565 -0.3268,0.2211 -0.5171,0.1423 -0.9065,-0.3951 -1.233,-1.2611 -1.3257,-1.4697 l -0.0148,-0.038 h -10e-4 c -0.0641,-0.165 0.0485,-0.3422 0.25,-0.3974 0.2013,-0.055 0.4164,0.0326 0.4825,0.1975" /><path
       id="path128"
       style="fill:#4c4c4b;fill-opacity:1;fill-rule:evenodd;stroke:none"
       d="m 275.3274,478.66 0.0153,0.0374 c 0.0471,0.1613 0.4187,0.9082 0.9462,1.1075 0.1894,0.0771 0.2631,0.2647 0.1662,0.4198 -0.0961,0.157 -0.3266,0.2217 -0.5171,0.1412 -0.9091,-0.3955 -1.2336,-1.26 -1.3263,-1.4681 l -0.0159,-0.0386 -0.002,0.002 c -0.0629,-0.1664 0.0496,-0.3442 0.2506,-0.3997 0.2013,-0.0547 0.4187,0.034 0.4827,0.199" /><path
       id="path130"
       style="fill:#e73f0c;fill-opacity:1;fill-rule:evenodd;stroke:none"
       d="m 284.6271,480.4333 c 0,3e-4 -2.0503,4.3739 -5.5888,3.4226 -3.5388,-0.9516 -3.4986,-3.6482 -3.4986,-3.6482 0,0 4.4794,-3.3021 9.0874,0.2256" /><path
       id="path132"
       style="fill:#ffffff;fill-opacity:1;fill-rule:evenodd;stroke:none"
       d="m 280.637,480.7763 c -0.0247,-0.4858 0.3538,-0.8969 0.8447,-0.919 0.4899,-0.0215 0.9066,0.3535 0.9306,0.8391 0.0244,0.4844 -0.3534,0.8954 -0.8435,0.9176 -0.4904,0.0221 -0.908,-0.3532 -0.9318,-0.8377" /><path
       id="path134"
       style="fill:#4c4c4b;fill-opacity:1;fill-rule:evenodd;stroke:none"
       d="m 282.1966,479.9146 c 0.0284,0.0261 0.095,0.1803 0.207,0.468 0.2245,0.4014 0.7333,0.9436 1.2792,1.2798 l 0.0267,0.0122 c 0.8682,-0.1831 1.497,-0.767 1.4638,-1.434 -0.0383,-0.7767 -0.9536,-1.3666 -2.0415,-1.3181 -0.3779,0.0172 -0.7206,0.1128 -1.014,0.2556 0.0255,0.2438 0.0485,0.4904 0.0788,0.7365" /><path
       id="path136"
       style="fill:#ffffff;fill-opacity:1;fill-rule:evenodd;stroke:none"
       d="m 276.4114,481.29 c -0.0241,-0.4848 0.3543,-0.8969 0.8453,-0.919 0.4887,-0.0221 0.9076,0.3546 0.9317,0.839 0.0239,0.485 -0.3557,0.8955 -0.8441,0.9176 -0.491,0.0221 -0.9085,-0.3526 -0.9329,-0.8376" /><path
       id="path138"
       style="fill:#ffffff;fill-opacity:1;fill-rule:evenodd;stroke:none"
       d="m 278.78,483.3006 c -0.0161,-0.3235 0.4298,-0.6069 0.9958,-0.6324 0.5622,-0.0253 1.0338,0.2168 1.0503,0.5408 0.0161,0.3243 -0.4298,0.6063 -0.9924,0.6316 -0.5655,0.0255 -1.0372,-0.2152 -1.0537,-0.54" /><path
       id="path140"
       style="fill:#e3b357;fill-opacity:1;fill-rule:evenodd;stroke:none"
       d="m 314.424,484.501 c 0,-2.2515 -3.6128,-4.6527 -9.4045,-4.6527 -5.7898,0 -11.5656,2.4012 -11.5656,4.6527 0,2.2516 4.695,4.0771 10.4847,4.0771 5.7915,0 10.4854,-1.8255 10.4854,-4.0771" /><path
       id="path142"
       style="fill:#e3b357;fill-opacity:1;fill-rule:evenodd;stroke:none"
       d="m 290.2501,475.4511 c 0,-2.3076 -3.2572,-4.7687 -8.4772,-4.7687 -5.22,0 -10.4262,2.4611 -10.4262,4.7687 0,2.308 4.2316,4.18 9.4513,4.18 5.2206,0 9.4521,-1.872 9.4521,-4.18" /><path
       id="path144"
       style="fill:#e3b357;fill-opacity:1;fill-rule:evenodd;stroke:none"
       d="m 331.3664,476.4107 c 0,-2.1379 -3.0078,-4.4187 -7.829,-4.4187 -4.8203,0 -9.6287,2.2808 -9.6287,4.4187 0,2.1401 3.9081,3.8747 8.729,3.8747 4.8211,0 8.7287,-1.7346 8.7287,-3.8747" /><path
       id="path146"
       style="fill:#acc909;fill-opacity:1;fill-rule:evenodd;stroke:none"
       d="m 271.4845,477.6208 c 0,0 4.0734,-7.7009 10.1081,-5.4987 5.2143,1.9035 6.1829,4.5893 7.4151,5.2155 0,0 -5.4714,8.0858 -17.5232,0.2832" /><path
       id="path148"
       style="fill:#23a735;fill-opacity:1;fill-rule:evenodd;stroke:none"
       d="m 282.5002,476.4702 c 2.6144,0.1137 4.7965,0.6214 6.7204,1.514 1.2722,0.4921 2.482,1.19 3.3857,2.1671 0.1993,0.1655 0.3963,0.337 0.591,0.5136 0.2396,0.0893 0.5159,0.0612 0.7342,-0.0981 l 0.0388,-0.0309 c 0.3314,-0.2738 0.3785,-0.7665 0.1052,-1.0964 -1.8774,-2.2448 -4.7214,-3.2358 -7.0639,-3.7196 -2.3477,-0.4768 -4.2333,-0.4303 -4.271,-0.4292 -0.4303,0.0105 -4.3143,0.7234 -4.3061,1.152 l -0.0544,0.095 c 1.3643,-0.093 2.7357,-0.1282 4.1201,-0.0675" /><path
       id="path150"
       style="fill:#acc909;fill-opacity:1;fill-rule:evenodd;stroke:none"
       d="m 312.2921,477.0859 c 0,0 4.9368,-7.4801 10.686,-4.1769 4.9677,2.854 5.6222,5.8493 6.7762,6.7105 0,0 -6.3714,7.6612 -17.4622,-2.5336" /><path
       id="path152"
       style="fill:#23a735;fill-opacity:1;fill-rule:evenodd;stroke:none"
       d="m 323.3812,477.6514 c 2.5869,0.5426 4.6998,1.4312 6.5103,2.6864 1.209,0.7254 2.3318,1.6594 3.1184,2.8375 0.1792,0.2069 0.3552,0.4198 0.5292,0.6398 0.2277,0.1315 0.506,0.1474 0.741,0.0133 l 0.042,-0.0264 c 0.3608,-0.2355 0.4651,-0.7486 0.231,-1.1426 -1.6095,-2.6748 -4.324,-4.182 -6.5988,-5.0721 -2.2804,-0.8838 -4.1604,-1.1398 -4.1984,-1.1446 -0.4294,-0.0573 -4.375,0.0678 -4.4161,0.5224 l -0.0643,0.091 c 1.3674,0.1213 2.7357,0.3073 4.1057,0.5953" /><path
       id="path154"
       style="fill:#acc909;fill-opacity:1;fill-rule:evenodd;stroke:none"
       d="m 293.1313,485.1289 c 0,0 4.3534,8.8716 11.3011,6.5951 6.0027,-1.9667 7.2026,-4.9748 8.6296,-5.6407 -3e-4,0 -5.9307,-9.3577 -19.9307,-0.9544" /><path
       id="path156"
       style="fill:#23a735;fill-opacity:1;fill-rule:evenodd;stroke:none"
       d="m 305.6241,486.8308 c 2.9787,-0.0343 5.4814,-0.5292 7.7026,-1.4714 1.4652,-0.5108 2.8673,-1.2589 3.9314,-2.3321 0.2327,-0.1808 0.4632,-0.3679 0.6916,-0.5615 0.275,-0.0927 0.5894,-0.0502 0.8314,0.138 l 0.0428,0.0357 c 0.3671,0.3237 0.4028,0.8827 0.08,1.247 -2.2184,2.4755 -5.4902,3.4945 -8.174,3.9574 -2.6887,0.4561 -4.8317,0.3354 -4.8756,0.3325 -0.4895,-0.0286 -4.8832,-0.9748 -4.858,-1.4624 l -0.057,-0.1088 c 1.5483,0.1556 3.1079,0.2449 4.6848,0.2256" /><path
       id="path158"
       style="fill:#4c4c4b;fill-opacity:1;fill-rule:evenodd;stroke:none"
       d="m 282.3797,477.652 0.002,0.0402 c -0.005,0.1661 0.1131,0.9706 0.5556,1.2745 0.1562,0.1182 0.1661,0.3163 0.0244,0.4453 -0.1432,0.1307 -0.3852,0.1423 -0.5431,0.0255 -0.7458,-0.58 -0.7807,-1.487 -0.8031,-1.7115 l -0.002,-0.0403 h -0.002 c -0.009,-0.1726 0.1574,-0.3206 0.368,-0.3294 0.2109,-0.01 0.3917,0.1225 0.3999,0.2957" /><path
       id="path160"
       style="fill:#4c4c4b;fill-opacity:1;fill-rule:evenodd;stroke:none"
       d="m 280.921,477.8952 0.002,0.0394 c -0.006,0.1675 0.1125,0.972 0.5556,1.2756 0.1556,0.1168 0.1655,0.3149 0.0238,0.4442 -0.1434,0.1301 -0.3841,0.142 -0.542,0.0263 -0.7458,-0.5788 -0.7818,-1.489 -0.8042,-1.7115 l -0.002,-0.0392 h -0.002 c -0.009,-0.1743 0.1574,-0.3217 0.3674,-0.3313 0.212,-0.01 0.3923,0.1224 0.4005,0.2965" /><path
       id="path162"
       style="fill:#4c4c4b;fill-opacity:1;fill-rule:evenodd;stroke:none"
       d="m 278.3801,478.218 0.0141,0.0389 c 0.0496,0.1618 0.421,0.9079 0.9474,1.1049 0.1896,0.0788 0.2625,0.2659 0.165,0.4215 -0.0961,0.1565 -0.3272,0.2211 -0.5171,0.1423 -0.9068,-0.3951 -1.2331,-1.2611 -1.3258,-1.4697 l -0.0147,-0.038 h -10e-4 c -0.0647,-0.165 0.0484,-0.3422 0.2497,-0.3974 0.2015,-0.055 0.4167,0.0326 0.4825,0.1975" /><path
       id="path164"
       style="fill:#4c4c4b;fill-opacity:1;fill-rule:evenodd;stroke:none"
       d="m 277.0829,478.66 0.0153,0.0374 c 0.0477,0.1613 0.4193,0.9082 0.9462,1.1075 0.19,0.0771 0.2631,0.2647 0.1662,0.4198 -0.0959,0.157 -0.3266,0.2217 -0.5171,0.1412 -0.9085,-0.3955 -1.2331,-1.26 -1.3258,-1.4681 l -0.0158,-0.0386 -0.002,0.002 c -0.063,-0.1664 0.0496,-0.3442 0.25,-0.3997 0.2012,-0.0547 0.4192,0.034 0.4827,0.199" /><path
       id="path166"
       style="fill:#e73f0c;fill-opacity:1;fill-rule:evenodd;stroke:none"
       d="m 286.3831,480.4333 c 0,3e-4 -2.0508,4.3739 -5.5888,3.4226 -3.5393,-0.9516 -3.4985,-3.6482 -3.4985,-3.6482 0,0 4.4788,-3.3021 9.0873,0.2256" /><path
       id="path168"
       style="fill:#ffffff;fill-opacity:1;fill-rule:evenodd;stroke:none"
       d="m 282.3925,480.7763 c -0.0244,-0.4858 0.3546,-0.8969 0.8453,-0.919 0.4893,-0.0215 0.9065,0.3535 0.9303,0.8391 0.0247,0.4844 -0.3537,0.8954 -0.8433,0.9176 -0.4904,0.0221 -0.9082,-0.3532 -0.9323,-0.8377" /><path
       id="path170"
       style="fill:#4c4c4b;fill-opacity:1;fill-rule:evenodd;stroke:none"
       d="m 283.9527,479.9146 c 0.0283,0.0261 0.095,0.1803 0.2069,0.468 0.2237,0.4014 0.7333,0.9436 1.279,1.2798 l 0.0264,0.0122 c 0.8685,-0.1831 1.4975,-0.767 1.4644,-1.434 -0.0386,-0.7767 -0.9536,-1.3666 -2.0416,-1.3181 -0.3778,0.0172 -0.7211,0.1128 -1.0139,0.2556 0.0255,0.2438 0.0479,0.4904 0.0788,0.7365" /><path
       id="path172"
       style="fill:#ffffff;fill-opacity:1;fill-rule:evenodd;stroke:none"
       d="m 278.1675,481.29 c -0.0244,-0.4848 0.3543,-0.8969 0.8453,-0.919 0.4884,-0.0221 0.9076,0.3546 0.9317,0.839 0.0238,0.485 -0.3557,0.8955 -0.8442,0.9176 -0.4909,0.0221 -0.909,-0.3526 -0.9328,-0.8376" /><path
       id="path174"
       style="fill:#ffffff;fill-opacity:1;fill-rule:evenodd;stroke:none"
       d="m 280.5361,483.3006 c -0.0164,-0.3235 0.4297,-0.6069 0.9952,-0.6324 0.5624,-0.0253 1.0344,0.2168 1.0506,0.5408 0.0158,0.3243 -0.4298,0.6063 -0.9922,0.6316 -0.5655,0.0255 -1.0372,-0.2152 -1.0536,-0.54" /><path
       id="path176"
       style="fill:#1a1a18;fill-opacity:1;fill-rule:evenodd;stroke:none"
       d="m 324.3637,566.4736 c -0.5383,1.4482 -1.6194,1.9922 -1.9718,3.2633 -0.2123,0.7562 0.195,3.6175 -2.9137,5.8614 0.1893,1.5574 0.9096,3.1184 0.1695,4.6432 -0.5661,1.1647 -1.8131,2.4916 -1.9432,2.9477 -0.3441,1.2116 0.6577,2.9546 -0.1383,4.4144 -0.5743,1.0542 -1.4454,2.4219 -2.6733,2.2913 -0.3323,1.9006 -0.6818,3.2264 -1.4463,5.2466 -0.4674,1.2342 -2.8902,4.9445 -5.4377,5.0692 -0.9326,0.0672 0.7662,-6.563 0.6832,-7.5733 -0.1979,-2.3426 0.9969,-2.9874 2.1413,-4.4861 -0.8881,-0.9179 -0.3045,-2.7751 0.0782,-3.9257 0.5284,-1.5914 1.7853,-2.3582 2.6436,-3.2193 0.2778,-0.2787 -1.0358,-2.6555 -0.5063,-4.0221 0.6126,-1.5917 1.753,-2.4358 2.9906,-3.2876 -1.3448,-2.8231 3.1966,-3.8135 3.8616,-5.6078 0.4618,-1.2441 -0.186,-1.1622 0.5015,-2.5362 0.7687,-1.5338 3.018,-1.8779 4.9521,-2.0435 0.007,0.074 0.003,0.15 0.005,0.2279 0.0805,-0.0822 0.1636,-0.155 0.2444,-0.2168 -0.2325,1.6265 -0.637,1.3368 -1.2399,2.9534" /><path
       id="path178"
       style="fill:#1a1a18;fill-opacity:1;fill-rule:evenodd;stroke:none"
       d="m 337.695,556.1918 c -1.0083,0.0859 -2.6841,1.1007 -5.1497,4.1737 -2.4656,3.0756 -5.6392,3.985 -7.2935,3.8333 -1.6509,-0.1534 0.3673,-4.4158 4.4325,-6.3368 4.5451,-2.1459 8.3262,-1.698 8.0107,-1.6702" /><path
       id="path180"
       style="fill:#f18990;fill-opacity:1;fill-rule:evenodd;stroke:none"
       d="m 290.2842,558.9386 c 0.3818,-2.9373 1.6095,-5.2005 2.747,-5.0531 1.135,0.1474 1.7484,2.6479 1.3689,5.5862 -0.3796,2.9356 -1.6093,5.1988 -2.7465,5.052 -1.1359,-0.1469 -1.7479,-2.6465 -1.3694,-5.5851" /><path
       id="path182"
       style="fill:#f2ab7f;fill-opacity:1;fill-rule:evenodd;stroke:none"
       d="m 304.5399,561.024 c 1.9213,-2.3114 4.5365,-1.5511 6.1857,-0.1809 1.6501,1.3723 1.8508,3.2922 -0.0717,5.605 -1.923,2.3122 -4.818,3.0742 -6.4686,1.7005 -1.6504,-1.37 -1.5684,-4.8121 0.3546,-7.1246" /><path
       id="path184"
       style="fill:#fcd7b8;fill-opacity:1;fill-rule:evenodd;stroke:none"
       d="m 269.4152,562.2866 c 0.0199,1.7719 -1.766,3.6269 -2.6799,4.945 -2.4865,3.5603 -4.6624,7.4089 -6.2832,11.6053 -3.2763,8.466 -1.3788,17.7613 5.1188,23.5664 l 0.4875,0.4439 c 3.2298,1.4026 8.5456,6.6711 11.9843,7.2669 4.72,0.8204 11.2729,2.9308 15.9948,1.8967 9.8453,-2.1524 20.4506,-15.209 23.2776,-25.4642 2.6637,-9.663 -5.1211,-24.9486 -16.2746,-30.0243 -2.054,-0.934 -4.4991,-2.2609 -8.4441,-2.6484 0.9578,1.6189 0.7092,6.3507 -0.7305,8.6814 -0.8323,1.3456 -0.6741,-1.5211 -2.3607,-5.0324 -0.9312,-1.9392 -1.6081,-2.9968 -2.6235,-3.5484 -1.2149,0.1401 -2.5208,0.347 -3.95,0.6571 -2.8443,0.6157 -5.94,1.3504 -8.6726,2.2399 -2.566,0.8337 -4.9851,-0.8745 -7.3472,0.4011 0.4493,1.6722 2.4821,3.1972 2.5033,5.014" /><path
       id="path186"
       style="fill:#dd9100;fill-opacity:1;fill-rule:evenodd;stroke:none"
       d="m 265.9989,582.5256 c -0.004,-0.1122 0.003,-0.2222 0.0133,-0.3327 -0.0757,0.0476 -0.1531,0.0892 -0.2233,0.1031 z" /><path
       id="path188"
       style="fill:#f9be94;fill-opacity:1;fill-rule:evenodd;stroke:none"
       d="m 295.5682,555.2124 c 15.298,7.9529 22.3699,25.3559 17.4288,40.79 1.9676,-3.1615 3.4838,-6.4315 4.3175,-9.4564 2.6634,-9.6624 -5.1214,-24.9497 -16.274,-30.0237 -2.0341,-0.9241 -4.4546,-2.2297 -8.3313,-2.6323 0.9621,0.3966 1.9154,0.8331 2.859,1.3224" /><path
       id="path190"
       style="fill:#1a1a18;fill-opacity:1;fill-rule:evenodd;stroke:none"
       d="m 323.5683,582.7192 c 0.5448,1.4114 0.9901,2.8877 1.3683,4.3949 0.2253,3.4327 0.3914,6.8567 0.3245,10.2875 -0.1734,1.2716 -0.4195,2.539 -0.7432,3.8044 -3.8469,9.6037 -10.1106,16.8103 -20.2269,20.804 -7.4469,2.9449 -23.8901,2.5285 -33.5897,-5.2217 -5.0241,-4.0201 -7.2023,-11.1288 -8.7211,-12.4203 -2.0599,-1.7473 0.2378,-2.1314 -1.0961,-4.2372 -2.602,-4.1015 -3.4991,-8.4898 -2.0988,-15.6014 -0.385,0.1115 0.7121,-0.5292 0.2543,-0.5771 l 0.5561,-0.2168 c 4.3509,-0.3952 -3.28,8.2913 1.2232,8.4931 2.8182,0.1248 7.4128,2.668 11.7924,3.1933 0.3634,0.045 0.7222,0.0816 1.0797,0.1142 2.7161,-2.7933 21.4979,-2.7128 30.657,-9.7257 5.2449,-4.0158 8.998,-10.4533 10.258,-16.4089 3.3097,3.926 7.0906,8.4611 8.9623,13.3177" /><path
       id="path192"
       style="fill:#1a1a18;fill-opacity:1;fill-rule:evenodd;stroke:none"
       d="m 256.2749,594.904 c 2.0002,7.0673 7.2596,12.2082 12.0512,13.7826 2.202,0.7217 4.184,0.2959 4.1301,-2.7567 3.5686,-5.4026 12.2363,-18.5034 15.7589,-23.5959 l 1.4803,-1.8244 c 0.0751,-1.7433 -16.6929,-9.7239 -25.3097,-8.5918 -2.7354,-0.2942 -4.8501,-0.2423 -5.3374,0.4204 -3.4381,3.361 -5.2735,13.7333 -2.7734,22.5658" /><path
       id="path194"
       style="fill:#1a1a18;fill-opacity:1;fill-rule:evenodd;stroke:none"
       d="m 298.7317,616.2335 c 0.7319,-2.0395 4.7942,-3.9812 6.3864,-5.7211 1.3275,-1.4505 2.0192,-2.81 2.6431,-4.3112 -3.1247,2.5574 -6.6263,4.6009 -10.5149,5.7903 -3.1668,0.9666 -6.4902,1.44 -9.7752,1.8349 -1.2204,0.1462 -2.6907,0.4099 -4.1038,0.3974 0.3887,0.8665 1.9097,1.4984 2.5937,1.9718 -0.5385,1.6412 -2.3955,1.7764 -3.7683,1.5579 0.2191,0.3691 0.5391,0.5386 0.9275,0.7571 5.3319,4.0025 17.1572,3.3114 21.5373,-2.4503 -1.8212,-0.2174 -4.3282,1.2238 -5.9258,0.1732" /><path
       id="path196"
       style="fill:#ac6f2f;fill-opacity:1;fill-rule:evenodd;stroke:none"
       d="m 271.0227,593.6034 c 0.0179,-0.138 0.0916,-0.3727 0.1965,-0.6647 -0.1035,-0.1049 -0.2174,-0.1922 -0.292,-0.3316 z" /><path
       id="path198"
       style="fill:#1a1a18;fill-opacity:1;fill-rule:evenodd;stroke:none"
       d="m 261.7634,595.3343 c 2.0761,0.8855 3.3783,-1.7037 5.5023,-1.8777 2.5875,-0.2146 2.6651,1.8329 4.6052,-1.569 -0.0343,-0.1468 -0.1103,-0.2401 -0.1883,-0.3254 -0.1184,0.3161 -0.2018,0.5732 -0.225,0.7214 l -0.07,-1.0703 c 0.0734,0.1479 0.1902,0.2389 0.295,0.3489 0.65,-1.7799 2.458,-5.722 2.0801,-6.402 -1.3368,-2.3953 -3.3026,1.902 -4.5071,2.0675 -5.0227,0.6937 0.0122,-9.1819 1.0931,-10.978 -3.7953,-0.9493 -7.0345,7.2868 -8.8781,9.9315 -0.7257,-0.625 -1.2802,-1.1526 -1.3856,-2.2929 -2.1107,2.0709 -1.0491,10.2812 1.6784,11.446" /><path
       id="path200"
       style="fill:#f9be94;fill-opacity:1;fill-rule:evenodd;stroke:none"
       d="m 282.7684,570.384 c 2.7414,-2.9772 2.601,-6.9582 -0.5922,-8.2888 -2.3227,-0.9723 -3.2975,-1.5531 -5.735,0.8671 -3.0813,3.062 -2.8066,6.5943 -1.082,8.3333 1.7249,1.7405 5.0814,1.6192 7.4092,-0.9116" /><path
       id="path202"
       style="fill:#ffffff;fill-opacity:1;fill-rule:evenodd;stroke:none"
       d="m 282.3902,569.1555 c 2.2405,-2.4531 1.8981,-4.8989 0.1497,-6.5285 -1.7456,-1.6296 -4.2401,-1.8267 -6.4823,0.6262 -2.243,2.4556 -2.6424,5.7676 -0.8937,7.3961 1.7495,1.6294 4.9844,0.9596 7.2263,-1.4938" /><path
       id="path204"
       style="fill:#1b1307;fill-opacity:1;fill-rule:evenodd;stroke:none"
       d="m 279.0371,565.077 c 1.0752,-1.0194 1.3655,-2.3684 0.6438,-3.0161 -0.7206,-0.6477 -2.1787,-0.3481 -3.2545,0.6681 -1.0754,1.0197 -1.3677,2.3709 -0.6471,3.0167 0.7217,0.6494 2.1758,0.3492 3.2578,-0.6687" /><path
       id="path206"
       style="fill:#f9be94;fill-opacity:1;fill-rule:evenodd;stroke:none"
       d="m 267.0021,557.5527 0.1102,-0.1536 c 1.0891,-1.1929 3.6939,0.5201 4.2483,0.7823 1.0367,0.4887 2.4279,0 2.848,-1.2983 -1.1169,0.0783 -2.3272,-0.187 -3.4863,-0.2378 -0.4717,-0.021 -4.292,0.0434 -3.7202,0.9074" /><path
       id="path208"
       style="fill:#fcd7b8;fill-opacity:1;fill-rule:evenodd;stroke:none"
       d="m 299.2351,583.501 c 0.2676,-1.7787 2.6892,-4.888 4.3614,-4.7171 2.4772,0.2492 3.9694,3.2964 3.7792,6.5095 -0.1877,3.2122 -2.2751,5.8257 -4.7489,5.663 -2.4767,-0.1567 -3.8722,-4.2961 -3.3917,-7.4554" /><path
       id="path210"
       style="fill:#f5af81;fill-opacity:1;fill-rule:evenodd;stroke:none"
       d="m 305.7245,586.4814 c -1.8664,-0.2829 -4.7311,-2.8579 -3.3942,-5.4834 -3.6579,4.4071 0.6372,10.8145 3.3942,5.4834" /><path
       id="path212"
       style="fill:#1a1a18;fill-opacity:1;fill-rule:evenodd;stroke:none"
       d="m 339.7813,564.6042 c -0.6976,1.633 -1.9219,2.1668 -2.4035,3.6085 -0.2888,0.8589 -0.0569,4.2154 -3.6278,6.5432 0.0899,1.8232 0.762,3.6981 -0.1632,5.4011 -0.707,1.3 -2.1705,2.7295 -2.3474,3.2462 -0.4683,1.3757 0.4983,3.4864 -0.483,5.1086 -0.7075,1.1727 -1.7632,2.6805 -3.0974,2.4214 -0.506,2.1759 -0.9879,3.6828 -1.9764,5.9573 -0.6043,1.3909 -3.5348,5.4802 -6.332,5.4014 -1.0258,-0.007 1.3306,-7.5453 1.3159,-8.7248 -0.0409,-2.734 1.3149,-3.3766 2.6795,-5.0156 -0.9034,-1.1418 -0.125,-3.2448 0.3805,-4.5456 0.6978,-1.798 2.131,-2.5776 3.1348,-3.5008 0.3251,-0.2968 -0.934,-3.1711 -0.2526,-4.7115 0.7895,-1.7903 2.1019,-2.6688 3.5198,-3.5481 -1.26,-3.3919 3.7848,-4.14 4.6471,-6.1631 0.599,-1.4026 -0.1162,-1.3629 0.7387,-2.8973 0.9564,-1.7112 3.4441,-1.9119 5.5744,-1.9329 0.002,0.0864 -0.009,0.1732 -0.0125,0.2659 0.0947,-0.0879 0.1902,-0.1667 0.284,-0.2302 -0.3767,1.8669 -0.7971,1.4936 -1.5789,3.3163" /><path
       id="path214"
       style="fill:#1a1a18;fill-opacity:1;fill-rule:evenodd;stroke:none"
       d="m 355.1443,553.8552 c -1.1104,0.01 -3.0206,1.0406 -5.9503,4.3866 -2.9284,3.3474 -6.4709,4.1247 -8.27,3.8015 -1.7961,-0.3234 0.7336,-5.089 5.3268,-6.9582 5.1356,-2.0871 9.2407,-1.2342 8.8935,-1.2299" /><path
       id="path216"
       style="fill:#e16756;fill-opacity:1;fill-rule:evenodd;stroke:none"
       d="m 342.3742,562.8416 c 0.498,-0.682 0.0816,-1.8261 -0.9315,-2.5648 -1.0131,-0.7362 -2.2377,-0.7852 -2.7363,-0.1049 -0.4992,0.6781 -0.0825,1.8232 0.9295,2.5614 1.0142,0.739 2.2388,0.7863 2.7383,0.1083" /><path
       id="path218"
       style="fill:#e16756;fill-opacity:1;fill-rule:evenodd;stroke:none"
       d="m 326.6164,564.783 c 0.4133,-0.6202 -0.0329,-1.5718 -0.997,-2.1345 -0.9637,-0.5618 -2.0797,-0.5187 -2.493,0.0981 -0.4139,0.6174 0.0326,1.5698 0.9946,2.1331 0.9652,0.5641 2.0815,0.519 2.4954,-0.0967" /><path
       id="path220"
       style="fill:#1a1a18;fill-opacity:1;fill-rule:evenodd;stroke:none"
       d="m 269.7157,609.1214 c -0.8456,-2.1345 -1.3859,-4.1581 -1.7277,-5.7631 -0.0902,0.0612 -0.1789,0.1259 -0.2682,0.1888 0.6747,4.4935 2.7794,12.1674 9.3481,14.7577 l 0.2191,-0.1655 c -0.7753,-0.2421 -5.5375,-3.8775 -7.5713,-9.0179" /><path
       id="path222"
       style="fill:#667f8c;fill-opacity:1;fill-rule:evenodd;stroke:none"
       d="m 267.0931,515.1807 c 0.8373,-0.0822 2.1835,0.0541 2.8278,0.7189 l 1.7745,10.9862 -5.5287,1.1659 -1.8062,-11.1762 c 0.9382,-1.377 1.5225,-1.5746 2.7326,-1.6948" /><path
       id="path224"
       style="fill:#53aad4;fill-opacity:1;fill-rule:evenodd;stroke:none"
       d="m 243.5414,502.6303 c -0.3702,-0.6721 -0.5474,-6.7161 0.2892,-7.4778 0.8365,-0.7614 3.1611,-1.5443 4.4396,-1.3799 1.2778,0.1653 1.9641,2.7706 11.7609,3.7295 9.7994,0.9601 22.1032,-0.549 23.1372,-2.0607 1.0361,-1.5112 4.2557,0.1165 4.4788,0.6732 0.2211,0.5573 -1.0494,6.2966 -1.548,8.4302 -1.184,5.0658 -38.38,5.677 -42.5577,-1.9145" /><path
       id="path226"
       style="fill:#96ceea;fill-opacity:1;fill-rule:evenodd;stroke:none"
       d="m 286.1768,504.2132 c -0.0281,0.1173 -0.0548,0.2327 -0.0777,0.3316 -1.1738,5.0278 -37.8284,5.6662 -42.4534,-1.749 0.8986,-0.4192 1.8139,-0.8081 2.7366,-1.1854 12.1289,5.688 26.3262,5.2007 39.7945,2.6028" /><path
       id="path228"
       style="fill:#53aad4;fill-opacity:1;fill-rule:evenodd;stroke:none"
       d="m 247.7741,496.1279 c 0,0 0.474,-7.9452 0.9269,-8.5102 0.4519,-0.5629 10.0355,-0.7812 19.1605,-0.6202 9.1265,0.1593 20.6533,2.4795 21.4396,5.4145 0.7846,2.933 0.2483,8.6669 -0.6565,9.7951 -0.9037,1.1273 -1.4825,-2.7349 -7.6005,-4.072 -6.8347,-1.4913 -31.0096,-2.2209 -33.27,-2.0072" /><path
       id="path230"
       style="fill:#96ceea;fill-opacity:1;fill-rule:evenodd;stroke:none"
       d="m 248.0306,495.203 c 0,0 -2.2405,2.0299 3.1576,2.6461 5.3957,0.6151 12.6266,-3.0878 28.9632,2.5903 2.1898,0.7608 1.844,3.0986 -0.9345,4.1871 -3.1355,1.2285 8.7905,-0.1721 8.7264,-2.4033 -0.1054,-3.6884 -9.6534,-12.1405 -39.9127,-7.0202" /><path
       id="path232"
       style="fill:#53aad4;fill-opacity:1;fill-rule:evenodd;stroke:none"
       d="m 271.8366,535.4892 c 0,0 7.2484,-0.9516 11.0316,-5.773 5.2786,-6.7232 1.2092,-16.9631 -2.1425,-24.9435 -1.0879,-2.5906 7.5084,-4.6661 7.5084,-4.6661 0,0 8.2095,15.2374 4.038,27.0099 -4.3155,12.1757 -15.7918,13.1865 -19.1687,13.0678 -2.619,-0.0927 -1.2668,-4.6951 -1.2668,-4.6951" /><path
       id="path234"
       style="fill:#0083ad;fill-opacity:1;fill-rule:evenodd;stroke:none"
       d="m 282.8682,529.7162 c 5.2786,-6.7232 1.2092,-16.9631 -2.1425,-24.9435 -0.4677,-1.1134 0.8535,-2.1277 2.5115,-2.9284 0.8238,1.6058 1.4431,3.2655 2.1016,5.0431 1.5563,4.2035 3.0918,9.5374 2.9407,14.1806 -0.1083,3.3219 -0.5899,4.727 -2.2252,7.431 -3.3097,4.682 -8.5864,7.5674 -14.4136,7.8486 0.0933,-0.5052 0.1959,-0.8584 0.1959,-0.8584 0,0 7.2484,-0.9516 11.0316,-5.773" /><path
       id="path236"
       style="fill:#84959f;fill-opacity:1;fill-rule:evenodd;stroke:none"
       d="m 271.0378,527.4519 c -3.6054,0.6803 -7.3197,1.3833 -11.0155,1.2656 -1.2177,-0.0385 -3.5376,-0.3852 -5.311,-1.4442 L 254.34,524.715 c 3.9438,-1.8927 6.6957,-3.105 11.3261,-3.5818 2.6805,-0.2764 4.8611,-0.0553 6.802,0.3849 l 0.915,6.27 c -0.7066,-0.341 -1.5324,-0.4896 -2.3453,-0.3362" /><path
       id="path238"
       style="fill:#667f8c;fill-opacity:1;fill-rule:evenodd;stroke:none"
       d="M 254.7102,527.2583 254.34,524.715 c 0.7594,-1.3943 6.6957,-3.105 11.3261,-3.5818 2.6805,-0.2764 4.8611,-0.0553 6.802,0.3849 l 0.2965,2.0251 c -6.8904,-0.6115 -16.8749,1.6787 -18.0544,3.7151" /><path
       id="path240"
       style="fill:#53aad4;fill-opacity:1;fill-rule:evenodd;stroke:none"
       d="m 265.883,524.2277 c 1.8586,-0.4597 3.7754,-0.7217 5.6823,-0.7157 1.0862,0.001 2.2966,0.0249 3.5263,0.1298 l 3.5963,21.3551 -12.973,2.5129 -3.5255,-20.9301 c 1.052,-1.0781 2.2482,-1.9928 3.6936,-2.352" /><path
       id="path242"
       style="fill:#667f8c;fill-opacity:1;fill-rule:evenodd;stroke:none"
       d="m 277.1408,545.9567 2.1378,11.7661 -9.8138,1.7614 -2.2637,-12.4568 c 2.6566,-1.9483 6.7203,-2.0415 9.9397,-1.0707" /><path
       id="path244"
       style="fill:#667f8c;fill-opacity:1;fill-rule:evenodd;stroke:none"
       d="m 279.2489,557.7497 c -0.003,-0.4822 -2.5747,-0.7404 -5.2606,-0.2577 -2.6863,0.4833 -4.2403,1.1211 -4.4668,2.0038 -0.0992,0.3873 2.2439,0.6458 4.9314,0.1633 2.6856,-0.4822 4.7991,-1.3456 4.796,-1.9094" /><path
       id="path246"
       style="fill:#53aad4;fill-opacity:1;fill-rule:evenodd;stroke:none"
       d="m 278.6471,545.0272 c -0.1633,-0.966 -3.1742,-1.1928 -6.7255,-0.5059 -3.551,0.6885 -6.0103,2.0247 -6.1342,2.9976 -0.0428,0.3353 3.1102,0.8776 6.662,0.1894 3.5501,-0.6883 6.3618,-1.7116 6.1977,-2.6811" /><path
       id="path248"
       style="fill:#bfcdd5;fill-opacity:1;fill-rule:evenodd;stroke:none"
       d="m 278.6777,529.5291 c -1.8502,-0.8365 -3.9203,-0.1352 -4.6193,1.5647 -0.7002,1.6971 0.235,3.75 2.086,4.5831 1.8533,0.8368 3.9211,0.1349 4.6222,-1.5659 0.699,-1.6959 -0.2356,-3.7505 -2.0889,-4.5819" /><path
       id="path250"
       style="fill:#667f8c;fill-opacity:1;fill-rule:evenodd;stroke:none"
       d="m 253.1015,511.4792 c 0,0 -0.0768,2.0342 0.5837,2.0622 3.9679,0.1636 18.4762,-1.3306 20.594,-2.0826 1.7742,-0.6318 8.0359,-2.7998 10.8592,-3.9161 0.5446,-0.2151 0.2636,-2.3459 -0.1621,-2.5344 -1.5112,-0.6645 -23.3289,-1.0681 -24.4409,-0.9213 -1.1106,0.1466 -8.3166,7.3531 -7.4339,7.3922" /><path
       id="path252"
       style="fill:#84959f;fill-opacity:1;fill-rule:evenodd;stroke:none"
       d="m 253.5287,513.5576 c 0,0 18.7084,0.8575 21.1779,-0.0216 2.4721,-0.8784 12.1448,-5.8008 10.6337,-6.4638 -1.5106,-0.6633 -23.264,-1.0534 -24.3763,-0.906 -1.1095,0.1472 -8.3154,7.3517 -7.4353,7.3914" /><path
       id="path254"
       style="fill:#b2c0c9;fill-opacity:1;fill-rule:evenodd;stroke:none"
       d="m 255.4778,511.7012 c 0,0 11.1501,0.4303 12.456,-0.1018 1.3071,-0.5312 6.3613,-3.7278 5.5661,-4.1207 -0.7939,-0.3906 -13.4866,-0.2988 -14.0731,-0.2075 -0.5874,0.0915 -4.413,4.4098 -3.949,4.43" /><path
       id="path256"
       style="fill:#4c4c4b;fill-opacity:1;fill-rule:evenodd;stroke:none"
       d="m 264.8035,509.0275 v 0.0338 c 0.0119,0.1431 -0.0533,0.835 -0.4135,1.1131 -0.1262,0.106 -0.1262,0.2758 -10e-4,0.3807 0.1259,0.1066 0.3294,0.1075 0.4578,0.001 0.6027,-0.5253 0.5942,-1.302 0.6041,-1.495 l -3e-4,-0.0338 h 10e-4 c 0,-0.1479 -0.1454,-0.2681 -0.3228,-0.2681 -0.1778,0 -0.3249,0.1202 -0.3249,0.2681" /><path
       id="path258"
       style="fill:#4c4c4b;fill-opacity:1;fill-rule:evenodd;stroke:none"
       d="m 266.0409,509.1797 v 0.0335 c 0.0121,0.1426 -0.0536,0.8365 -0.4142,1.1123 -0.125,0.1055 -0.125,0.2764 -3e-4,0.3813 0.1259,0.1049 0.3288,0.106 0.457,0.002 0.6023,-0.5247 0.5947,-1.3037 0.604,-1.4953 V 509.18 h 10e-4 c 0,-0.1491 -0.1457,-0.2687 -0.3232,-0.2687 -0.1783,0 -0.3245,0.1194 -0.3245,0.2687" /><path
       id="path260"
       style="fill:#4c4c4b;fill-opacity:1;fill-rule:evenodd;stroke:none"
       d="m 268.1921,509.3578 -0.0105,0.0337 c -0.0343,0.1412 -0.3161,0.7923 -0.7504,0.9816 -0.1561,0.074 -0.2097,0.2379 -0.1213,0.3668 0.0876,0.1301 0.2846,0.1761 0.4417,0.1021 0.7455,-0.3719 0.9833,-1.1259 1.0533,-1.3079 l 0.0105,-0.0338 h 10e-4 c 0.0474,-0.1437 -0.0561,-0.2908 -0.2267,-0.3299 -0.1721,-0.0388 -0.3493,0.0439 -0.3977,0.1874" /><path
       id="path262"
       style="fill:#4c4c4b;fill-opacity:1;fill-rule:evenodd;stroke:none"
       d="m 269.3015,509.6863 -0.0116,0.032 c -0.0331,0.1401 -0.3143,0.7932 -0.7497,0.9831 -0.1562,0.0737 -0.2092,0.2378 -0.1219,0.3662 0.087,0.1298 0.284,0.1766 0.4408,0.1009 0.7475,-0.3724 0.9847,-1.1253 1.0542,-1.3059 l 0.0116,-0.034 0.001,0.001 c 0.0465,-0.1445 -0.0555,-0.2925 -0.2273,-0.3316 -0.171,-0.0397 -0.3504,0.0448 -0.3972,0.1882" /><path
       id="path264"
       style="fill:#e73f0c;fill-opacity:1;fill-rule:evenodd;stroke:none"
       d="m 261.5533,511.5609 c 0,0 1.9083,3.6612 4.8439,2.7116 2.9369,-0.9499 2.7901,-3.2545 2.7901,-3.2545 0,0 -3.9056,-2.6515 -7.634,0.5429" /><path
       id="path266"
       style="fill:#ffffff;fill-opacity:1;fill-rule:evenodd;stroke:none"
       d="m 264.9243,511.7 c 0,-0.4161 -0.3359,-0.7537 -0.7492,-0.7537 -0.4127,0 -0.7478,0.3376 -0.7478,0.7537 0,0.4153 0.3353,0.7523 0.7478,0.7523 0.4133,0 0.7495,-0.337 0.7492,-0.7523" /><path
       id="path268"
       style="fill:#4c4c4b;fill-opacity:1;fill-rule:evenodd;stroke:none"
       d="m 263.5764,511.0228 c -0.0238,0.0238 -0.0728,0.1579 -0.1542,0.4079 -0.1721,0.3518 -0.578,0.8368 -1.0227,1.1452 l -0.0219,0.0105 c -0.7387,-0.123 -1.2917,-0.5989 -1.2917,-1.1695 0,-0.667 0.7458,-1.2062 1.6619,-1.2062 0.3184,0 0.6118,0.0686 0.8638,0.1794 -0.0111,0.2092 -0.0199,0.421 -0.0352,0.6327" /><path
       id="path270"
       style="fill:#ffffff;fill-opacity:1;fill-rule:evenodd;stroke:none"
       d="m 268.4993,511.9764 c 0,-0.415 -0.3353,-0.7526 -0.7492,-0.7526 -0.4115,0 -0.7486,0.3376 -0.7486,0.7526 0,0.4159 0.3371,0.7532 0.7486,0.7532 0.4139,0 0.7492,-0.3373 0.7492,-0.7532" /><path
       id="path272"
       style="fill:#ffffff;fill-opacity:1;fill-rule:evenodd;stroke:none"
       d="m 266.5911,513.7877 c 0,-0.2769 -0.3864,-0.5028 -0.8632,-0.5028 -0.4739,0 -0.8606,0.2259 -0.8606,0.5028 0,0.2784 0.3867,0.5015 0.8606,0.5015 0.4768,0 0.8634,-0.2231 0.8632,-0.5015" /><path
       id="path274"
       style="fill:#fcd7b8;fill-opacity:1;fill-rule:evenodd;stroke:none"
       d="m 266.1687,534.8619 c 1.5942,-3.1663 -3.085,-1.237 -4.3413,-1.0482 l 0.0409,-0.1313 -0.0851,0.0822 c -3.5314,2.8523 2.8673,4.1213 4.3855,1.0973" /><path
       id="path276"
       style="fill:#fcd7b8;fill-opacity:1;fill-rule:evenodd;stroke:none"
       d="m 265.61,532.3445 c 1.6137,-3.1547 -3.0748,-1.2589 -4.3316,-1.0834 l 0.0436,-0.131 -0.0856,0.0839 c -3.5541,2.8242 2.8304,4.1434 4.3736,1.1305" /><path
       id="path278"
       style="fill:#667f8c;fill-opacity:1;fill-rule:evenodd;stroke:none"
       d="m 271.6441,559.23 c 0,0 0.7464,2.6152 1.0471,2.7637 0.4618,0.226 4.9527,-0.2616 4.966,-1.0185 0.007,-0.4526 -0.7262,-2.8247 -0.7262,-2.8247 -3e-4,3e-4 -3.4503,-1.6526 -5.2869,1.0795" /><path
       id="path280"
       style="fill:#fcd7b8;fill-opacity:1;fill-rule:evenodd;stroke:none"
       d="m 264.9827,529.4452 c 1.4241,-3.2301 -3.1652,-1.0704 -4.4133,-0.8186 l 0.0309,-0.1341 -0.0813,0.0887 c -3.3911,3.0169 3.1042,3.9438 4.4637,0.864" /><path
       id="path282"
       style="fill:#c6c6c7;fill-opacity:1;fill-rule:evenodd;stroke:none"
       d="M -2.1875,49.4535 H 595.1072 V 178.4134 H -2.4814 Z" /><path
       id="path284"
       style="fill:#ffffff;fill-opacity:1;fill-rule:evenodd;stroke:none"
       d="M 18.2716,179.6879 H 570.9135 L 595.1072,38.2782 H -2.4814 Z" /><text
       id="text292"
       style="font-variant:normal;font-weight:normal;font-size:18.99500084px;font-family:MVBoli;-inkscape-font-specification:MVBoli;writing-mode:lr-tb;fill:#1a1a18;fill-opacity:1;fill-rule:nonzero;stroke:none"
       transform="matrix(1,0,0,-1,103.3002,129.3537)"><tspan
         id="tspan286"
         y="0"
         x="0 8.6047354 26.17511 35.55864 44.828201 58.770531 68.818886 76.910751 85.002625 95.031982 104.30154 113.51412 123.65745 133.70581 144.22903 154.25839 163.52795 177.47029 187.91754 197.13011 207.15947 216.42903 225.6416 234.91116 242.98404 253.43129 258.23703 263.02377 273.39505 282.66458 296.60693 301.41266 306.1994 310.98615 320.25571 330.39902 339.78256 347.85544 357.90378 374.22049 383.60403">&quot;We worry about what a child will become </tspan><tspan
         id="tspan288"
         y="17.7925"
         x="27.714001 37.743359 47.791714 64.108421 74.156776 82.248642 90.340515 100.38887 114.3312 121.24538 130.51494 140.5443 149.92783 159.95718 169.22675 183.16908 192.55261 201.82217 209.34419 219.39255 227.48442 236.46906 245.85258 255.88194 265.15149 275.18085 285.62811 294.8407 304.87006 314.13962 324.58685 333.9704 343.23996 348.04568 355.90961">tomorrow, yet we forget that he is </tspan><tspan
         id="tspan290"
         y="35.584999"
         x="117.8064 125.67033 135.71869 152.03539 161.41891 171.46727 181.95251 191.33604 200.60561 210.63496 220.68332 231.0546 240.26717 250.29652 257.21069 265.81543">someone today.&quot; </tspan></text>
<text
       id="text296"
       style="font-variant:normal;font-weight:normal;font-size:14.35400009px;font-family:SybilGreen;-inkscape-font-specification:SybilGreen;writing-mode:lr-tb;fill:#1a1a18;fill-opacity:1;fill-rule:nonzero;stroke:none"
       transform="matrix(1,0,0,-1,230.9431,61.5654)"><tspan
         id="tspan294"
         y="0"
         x="0 5.8420782 13.77984 21.330044 31.449614 39.731873 42.487839 52.60741 58.219826 65.770027 75.889595 85.277115 93.214874 101.49713 109.66456 120.87503">Stacia Tauscher</tspan></text>
</g></svg>